<svg viewBox="0 0 100 100" xmlns="http://www.w3.org/2000/svg" id="Promotion-Dab-4--Streamline-Ux">
  <desc>
    Promotion Dab 4 Streamline Illustration: https://streamlinehq.com
  </desc>
  <path d="M10 54.917a40 40 0 1 0 80 0 40 40 0 1 0 -80 0Z" fill="#d9edff" stroke-width="1"></path>
  <path d="M70.32 14.144a1.265 1.265 0 0 1 -0.116 1.42 7.865 7.865 0 0 1 -5.191 2.943 1.266 1.266 0 0 1 -1.279 -0.629l-1.451 -2.558a0.634 0.634 0 0 1 0.458 -0.939A7.852 7.852 0 0 0 67.83 11.5a0.633 0.633 0 0 1 1.04 0.089Z" fill="#b0d9ff" stroke="#020064" stroke-linecap="round" stroke-linejoin="round" stroke-width="1"></path>
  <path d="M52.09 5.385a1.05 1.05 0 0 1 0.886 0.778 6.511 6.511 0 0 1 -0.6 4.9 1.047 1.047 0 0 1 -1.049 0.539l-2.415 -0.3a0.524 0.524 0 0 1 -0.4 -0.767 6.5 6.5 0 0 0 0.593 -4.8 0.524 0.524 0 0 1 0.572 -0.648Z" fill="#b0d9ff" stroke="#020064" stroke-linecap="round" stroke-linejoin="round" stroke-width="1"></path>
  <path d="M25.967 30.868a1.42 1.42 0 0 1 -1.481 -0.6 8.827 8.827 0 0 1 -1.407 -6.545 1.422 1.422 0 0 1 1.1 -1.158l3.226 -0.693a0.71 0.71 0 0 1 0.851 0.8 8.812 8.812 0 0 0 1.378 6.416 0.71 0.71 0 0 1 -0.444 1.084Z" fill="#b0d9ff" stroke="#020064" stroke-linecap="round" stroke-linejoin="round" stroke-width="1"></path>
  <path d="M12.769 56.4a1.047 1.047 0 0 1 -1.092 -0.444 6.509 6.509 0 0 1 -1.038 -4.827 1.049 1.049 0 0 1 0.814 -0.854l2.379 -0.511a0.523 0.523 0 0 1 0.627 0.594 6.5 6.5 0 0 0 1.017 4.732 0.523 0.523 0 0 1 -0.328 0.8Z" fill="#b0d9ff" stroke="#020064" stroke-linecap="round" stroke-linejoin="round" stroke-width="1"></path>
  <path d="M27.775 74.592a1.441 1.441 0 0 1 1.622 -0.075 8.968 8.968 0 0 1 4.082 5.441 1.445 1.445 0 0 1 -0.526 1.537l-2.681 2.011a0.722 0.722 0 0 1 -1.127 -0.381 8.95 8.95 0 0 0 -4 -5.333 0.721 0.721 0 0 1 -0.051 -1.189Z" fill="#b0d9ff" stroke="#020064" stroke-linecap="round" stroke-linejoin="round" stroke-width="1"></path>
  <path d="M71.166 54.966a1.267 1.267 0 0 0 -1.422 -0.065 7.855 7.855 0 0 0 -3.576 4.766 1.266 1.266 0 0 0 0.461 1.347l2.349 1.762a0.632 0.632 0 0 0 0.987 -0.334 7.841 7.841 0 0 1 3.5 -4.672 0.632 0.632 0 0 0 0.044 -1.041Z" fill="#b0d9ff" stroke="#020064" stroke-linecap="round" stroke-linejoin="round" stroke-width="1"></path>
  <path d="M67.33 74.544a1.048 1.048 0 0 1 1.176 -0.082 6.51 6.51 0 0 1 3.055 3.879 1.048 1.048 0 0 1 -0.355 1.125l-1.912 1.505a0.523 0.523 0 0 1 -0.824 -0.257 6.5 6.5 0 0 0 -3 -3.8 0.524 0.524 0 0 1 -0.057 -0.862Z" fill="#b0d9ff" stroke="#020064" stroke-linecap="round" stroke-linejoin="round" stroke-width="1"></path>
  <path d="M11.6 68.9a1.047 1.047 0 0 0 -0.42 1.1 6.509 6.509 0 0 0 2.825 4.05 1.048 1.048 0 0 0 1.179 -0.013l2 -1.393a0.523 0.523 0 0 0 -0.007 -0.863 6.5 6.5 0 0 1 -2.769 -3.97 0.524 0.524 0 0 0 -0.808 -0.305Z" fill="#b0d9ff" stroke="#020064" stroke-linecap="round" stroke-linejoin="round" stroke-width="1"></path>
  <path d="M83.746 68.7a1.049 1.049 0 0 1 -0.57 1.033 6.506 6.506 0 0 1 -4.916 0.46 1.046 1.046 0 0 1 -0.752 -0.908l-0.227 -2.423a0.524 0.524 0 0 1 0.664 -0.553 6.5 6.5 0 0 0 4.819 -0.451 0.524 0.524 0 0 1 0.755 0.419Z" fill="#b0d9ff" stroke="#020064" stroke-linecap="round" stroke-linejoin="round" stroke-width="1"></path>
  <path d="M86.4 51.656a1.047 1.047 0 0 1 -0.57 1.032 6.51 6.51 0 0 1 -4.916 0.461 1.048 1.048 0 0 1 -0.752 -0.909l-0.227 -2.423a0.523 0.523 0 0 1 0.664 -0.552 6.5 6.5 0 0 0 4.819 -0.452 0.524 0.524 0 0 1 0.755 0.42Z" fill="#b0d9ff" stroke="#020064" stroke-linecap="round" stroke-linejoin="round" stroke-width="1"></path>
  <path d="M85.793 39.244a1.382 1.382 0 0 1 -1.243 0.937 8.6 8.6 0 0 1 -6.176 -2.1 1.382 1.382 0 0 1 -0.416 -1.5l1.033 -3.044a0.69 0.69 0 0 1 1.1 -0.308 8.591 8.591 0 0 0 6.054 2.055 0.693 0.693 0 0 1 0.684 0.913Z" fill="#b0d9ff" stroke="#020064" stroke-linecap="round" stroke-linejoin="round" stroke-width="1"></path>
  <path d="M35.657 12.587a1.061 1.061 0 0 1 -0.636 1.011 6.592 6.592 0 0 1 -5 0.182 1.063 1.063 0 0 1 -0.707 -0.962l-0.09 -2.462a0.531 0.531 0 0 1 0.7 -0.521 6.575 6.575 0 0 0 4.9 -0.178 0.531 0.531 0 0 1 0.739 0.468Z" fill="#b0d9ff" stroke="#020064" stroke-linecap="round" stroke-linejoin="round" stroke-width="1"></path>
  <path d="M21.817 60.925a1.528 1.528 0 0 1 -0.455 -1.658 9.492 9.492 0 0 1 4.67 -5.482 1.527 1.527 0 0 1 1.71 0.185l2.7 2.3a0.763 0.763 0 0 1 -0.131 1.253 9.479 9.479 0 0 0 -4.577 5.377 0.764 0.764 0 0 1 -1.216 0.33Z" fill="#b0d9ff" stroke="#020064" stroke-linecap="round" stroke-linejoin="round" stroke-width="1"></path>
  <path d="M35.619 86.012a12.977 2.171 0 1 0 25.954 0 12.977 2.171 0 1 0 -25.954 0Z" fill="#b0d9ff" stroke-width="1"></path>
  <path d="M59.188 81.783a1.4 1.4 0 0 1 -1.111 -0.425l-7.455 -7.441a2.376 2.376 0 0 1 -0.7 -0.9l-4.307 -12.684a2.4 2.4 0 0 1 1.2 -3.173c1.21 -0.545 6.128 -0.008 6.673 1.2l2.318 13.654 4.62 5.234a2.76 2.76 0 0 1 0.644 3.622 2.4 2.4 0 0 1 -1.882 0.913Z" fill="#ffffff" stroke="#020064" stroke-linecap="round" stroke-linejoin="round" stroke-width="1"></path>
  <path d="M40.989 83.968c-1.186 0 -1.717 -0.88 -1.877 -2.088l-1.756 -9.391a2 2 0 0 1 0.092 -1.068l2.107 -5.642 8.4 -9.652a2.4 2.4 0 0 1 3.467 3.319l-4.594 6.863a24.7 24.7 0 0 0 -3.856 6l0.9 8.448a3.337 3.337 0 0 1 -2.567 3.193 2.616 2.616 0 0 1 -0.316 0.018Z" fill="#ffffff" stroke="#020064" stroke-linecap="round" stroke-linejoin="round" stroke-width="1"></path>
  <path d="M74.959 30.056c-0.275 -0.148 -2.51 -0.778 -2.51 -0.778l3.943 -1.3c1.543 -0.522 0.623 -2.822 -0.579 -2.418l-17.728 5.9 1.245 4.6 12.349 -4.239 1.43 -0.066a1.848 1.848 0 0 0 1.85 -1.699Z" fill="#ffffff" stroke="#020064" stroke-linecap="round" stroke-linejoin="round" stroke-width="1"></path>
  <path d="m61.887 78.475 -1.545 -1.508 -2.69 2.757a4.159 4.159 0 0 0 -1.027 4.031 1.385 1.385 0 0 0 2.327 0.592l2.97 -3.044a2 2 0 0 0 -0.035 -2.828Z" fill="#b0d9ff" stroke="#020064" stroke-linecap="round" stroke-linejoin="round" stroke-width="1"></path>
  <path d="M44.255 82.767v-2.159H40.4a4.157 4.157 0 0 0 -3.6 2.079 1.385 1.385 0 0 0 1.2 2.079h4.253a2 2 0 0 0 2.002 -1.999Z" fill="#b0d9ff" stroke="#020064" stroke-linecap="round" stroke-linejoin="round" stroke-width="1"></path>
  <path d="M40.113 58.11s-3.277 8.418 -3.233 12.7c6.083 -3.06 11.9 1.676 19.2 -1.683 -2.679 -7.543 -0.031 -5.7 -0.724 -13.084H40.113Z" fill="#b0d9ff" stroke="#020064" stroke-linecap="round" stroke-linejoin="round" stroke-width="1"></path>
  <path d="m59.33 36.053 -1.245 -4.6 -8.166 2.717h-6.271c-5.259 0.935 -4.921 7.108 -4.921 7.108a4.163 4.163 0 0 0 0.622 2.272 4.152 4.152 0 0 1 0.764 2.4v12.173l5.545 2.077 2.079 -3.465 2.079 3.465 5.545 -2.079V45.955a4.158 4.158 0 0 1 0.763 -2.4 4.154 4.154 0 0 0 0.623 -2.272s0.065 -2.348 0.013 -4.345Z" fill="#b0d9ff" stroke="#020064" stroke-linecap="round" stroke-linejoin="round" stroke-width="1"></path>
  <path d="m47.737 45.262 0 11.475" fill="none" stroke="#020064" stroke-linecap="round" stroke-linejoin="round" stroke-width="1"></path>
  <path d="m51.826 34.172 -4.089 11.09 -4.089 -11.09a12.41 12.41 0 0 1 8.178 0Z" fill="#ffffff" stroke="#020064" stroke-linecap="round" stroke-linejoin="round" stroke-width="1"></path>
  <path d="m42.192 41.8 0.693 -3.465 -3.465 1.382v-3.049a12.256 12.256 0 0 1 4.228 -2.5l4.089 11.09Z" fill="none" stroke="#020064" stroke-linecap="round" stroke-linejoin="round" stroke-width="1"></path>
  <path d="m56.054 39.717 -3.466 -1.386 0.693 3.465 -5.544 3.466 4.089 -11.09a12.238 12.238 0 0 1 4.228 2.5Z" fill="none" stroke="#020064" stroke-linecap="round" stroke-linejoin="round" stroke-width="1"></path>
  <path d="m47.737 33.479 2.495 5 1.594 -4.311a12.129 12.129 0 0 0 -4.089 -0.689Z" fill="#ffffff" stroke="#020064" stroke-linecap="round" stroke-linejoin="round" stroke-width="1"></path>
  <path d="m47.737 33.479 -2.5 5 -1.594 -4.311a12.129 12.129 0 0 1 4.094 -0.689Z" fill="#ffffff" stroke="#020064" stroke-linecap="round" stroke-linejoin="round" stroke-width="1"></path>
  <path d="M55.058 29.092a1.618 1.618 0 0 0 -1.62 -1.254l-0.225 -1.025a7.869 7.869 0 1 0 -15.37 3.387l0.225 1.025a1.606 1.606 0 0 0 0.846 3.07 7.87 7.87 0 0 0 15.047 -3.314 1.624 1.624 0 0 0 1.097 -1.889Z" fill="#ffffff" stroke="#020064" stroke-linecap="round" stroke-linejoin="round" stroke-width="1"></path>
  <path d="M41.567 33.861a0.984 0.984 0 1 0 1.968 0 0.984 0.984 0 1 0 -1.968 0Z" fill="#b0d9ff" stroke-width="1"></path>
  <path d="M49.893 32.027a0.984 0.984 0 1 0 1.968 0 0.984 0.984 0 1 0 -1.968 0Z" fill="#b0d9ff" stroke-width="1"></path>
  <path d="M51.652 25.813a1.315 1.315 0 0 1 1.563 1l0.225 1.026a1.606 1.606 0 0 1 0.521 3.141 7.858 7.858 0 0 1 -1.561 4.793 12.745 12.745 0 0 0 6.213 -3.3 1.351 1.351 0 0 0 0.047 -1.918 28.088 28.088 0 0 1 -5.17 -7.254 9.731 9.731 0 0 0 -10.217 -5.041 9.733 9.733 0 0 0 -7.154 8.866 28.082 28.082 0 0 1 -1.644 8.756 1.35 1.35 0 0 0 0.849 1.72 12.738 12.738 0 0 0 7.024 0.387 7.865 7.865 0 0 1 -3.432 -3.694 1.607 1.607 0 0 1 -0.847 -3.07l-0.228 -1.025a1.315 1.315 0 0 1 1 -1.563 13.928 13.928 0 0 0 12.811 -2.824Z" fill="#ffffff" stroke="#020064" stroke-linecap="round" stroke-linejoin="round" stroke-width="1"></path>
  <path d="m42.109 40.207 -3.515 1.155a2.426 2.426 0 1 1 -1.51 -4.611l3.3 -1.045Z" fill="#b0d9ff" stroke="#020064" stroke-linecap="round" stroke-linejoin="round" stroke-width="1"></path>
  <path d="m40.387 35.706 16.364 -5.175c1.2 -0.4 2.233 1.7 0.69 2.217l-3.942 1.3 2.6 0.626a2.5 2.5 0 0 1 -2.011 2.03l-1.378 0.016 -10.6 3.482Z" fill="#ffffff" stroke="#020064" stroke-linecap="round" stroke-linejoin="round" stroke-width="1"></path>
</svg>